<svg width="23" height="23" viewBox="0 0 23 23" fill="none" xmlns="http://www.w3.org/2000/svg">
<path d="M11.4439 13.4577C8.32672 13.4577 5.80114 10.43 5.80114 6.69794C5.80114 2.96626 8.32672 0.200195 11.4439 0.200195C14.5616 0.200195 17.0892 2.96626 17.0892 6.69794C17.0892 10.43 14.5615 13.4577 11.4439 13.4577ZM2.66637 22.596C2.66637 22.596 1.46946 22.675 0.942268 21.9485C0.657406 21.5561 0.855841 20.7608 1.05064 20.3171L1.52773 19.2298C1.52773 19.2298 2.84713 16.279 4.34907 14.569C5.27168 13.5204 6.369 13.7592 7.07873 14.1002C7.51587 14.31 8.01014 14.9214 8.37135 15.2454C8.86909 15.6918 9.7478 16.1992 11.1844 16.2277H12.0658C13.5014 16.1992 14.3801 15.6918 14.8775 15.2454C15.2383 14.9215 15.7189 14.2912 16.1521 14.0744C16.8035 13.7483 17.7949 13.5477 18.6934 14.5691C20.1958 16.2791 21.3857 19.2835 21.3857 19.2835L21.8747 20.3497C22.077 20.7904 22.2842 21.5817 22.0073 21.9794C21.5131 22.6904 20.4035 22.596 20.4035 22.596L2.66637 22.596Z" fill="white"/>
</svg>
